HIERARCHY
ROOT Hips
{
	OFFSET 0.000000 0.000000 0.000000
	CHANNELS 6 Xposition Yposition Zposition Xrotation Yrotation Zrotation
	JOINT LeftUpLeg_virtual
	{
		OFFSET 0.000000 0.000000 0.000000
		CHANNELS 3 Xrotation Yrotation Zrotation
		JOINT LeftUpLeg
		{
			OFFSET 10.205400 -3.823500 0.155100
			CHANNELS 3 Xrotation Yrotation Zrotation
			JOINT LeftLeg
			{
				OFFSET 0.708757 -12.982077 0.567790
				CHANNELS 3 Xrotation Yrotation Zrotation
				JOINT LeftFoot
				{
					OFFSET -0.708756 -10.717838 -2.184338
					CHANNELS 3 Xrotation Yrotation Zrotation
					JOINT LeftToeBase
					{
						OFFSET 0.108149 -7.191104 7.560241
						CHANNELS 3 Xrotation Yrotation Zrotation
						JOINT LeftToe_End
						{
							OFFSET 0.070230 0.081724 4.490308
							CHANNELS 3 Xrotation Yrotation Zrotation
							End Site
							{
								OFFSET 0 0 0
							}
						}
					}
				}
			}
		}
	}
	JOINT RightUpLeg_virtual
	{
		OFFSET 0.000000 0.000000 0.000000
		CHANNELS 3 Xrotation Yrotation Zrotation
		JOINT RightUpLeg
		{
			OFFSET -10.205400 -3.823500 0.005500
			CHANNELS 3 Xrotation Yrotation Zrotation
			JOINT RightLeg
			{
				OFFSET -0.708756 -12.982134 0.610632
				CHANNELS 3 Xrotation Yrotation Zrotation
				JOINT RightFoot
				{
					OFFSET 0.708754 -10.717769 -1.945823
					CHANNELS 3 Xrotation Yrotation Zrotation
					JOINT RightToeBase
					{
						OFFSET -0.108140 -7.191069 7.372968
						CHANNELS 3 Xrotation Yrotation Zrotation
						JOINT RightToe_End
						{
							OFFSET -0.070227 0.081735 4.479403
							CHANNELS 3 Xrotation Yrotation Zrotation
							End Site
							{
								OFFSET 0 0 0
							}
						}
					}
				}
			}
		}
	}
	JOINT Spine_virtual
	{
		OFFSET 0.000000 0.000000 0.000000
		CHANNELS 3 Xrotation Yrotation Zrotation
		JOINT Spine
		{
			OFFSET 0.000000 6.876099 0.125700
			CHANNELS 3 Xrotation Yrotation Zrotation
			JOINT Spine1
			{
				OFFSET 0.000000 5.730043 0.104720
				CHANNELS 3 Xrotation Yrotation Zrotation
				JOINT Spine1_split
				{
					OFFSET 0.000000 5.730043 0.104720
					CHANNELS 3 Xrotation Yrotation Zrotation
					JOINT Spine2
					{
						OFFSET 0.000000 5.730043 0.104720
						CHANNELS 3 Xrotation Yrotation Zrotation
						JOINT Neck_virtual
						{
							OFFSET 0.000000 0.000000 0.000000
							CHANNELS 3 Xrotation Yrotation Zrotation
							JOINT Neck
							{
								OFFSET 0.000000 10.314075 0.188496
								CHANNELS 3 Xrotation Yrotation Zrotation
								JOINT Head
								{
									OFFSET 0.000000 7.643700 -2.377400
									CHANNELS 3 Xrotation Yrotation Zrotation
									JOINT HeadTop_End
									{
										OFFSET 0.000000 43.788605 -13.619600
										CHANNELS 3 Xrotation Yrotation Zrotation
										End Site
										{
											OFFSET 0 0 0
										}
									}
								}
							}
						}
						JOINT LeftShoulder_virtual
						{
							OFFSET 0.000000 0.000000 0.000000
							CHANNELS 3 Xrotation Yrotation Zrotation
							JOINT LeftShoulder
							{
								OFFSET 2.196100 4.412489 0.087492
								CHANNELS 3 Xrotation Yrotation Zrotation
								JOINT LeftShoulder_split
								{
									OFFSET 2.196100 4.412489 0.087492
									CHANNELS 3 Xrotation Yrotation Zrotation
									JOINT LeftArm
									{
										OFFSET 8.771219 -2.981674 -0.026999
										CHANNELS 3 Xrotation Yrotation Zrotation
										JOINT LeftForeArm
										{
											OFFSET 8.512804 0.000000 -0.000000
											CHANNELS 3 Xrotation Yrotation Zrotation
											JOINT LeftHand
											{
												OFFSET 18.484802 0.000000 -0.000000
												CHANNELS 3 Xrotation Yrotation Zrotation
												End Site
												{
													OFFSET 0 0 0
												}
											}
										}
									}
								}
							}
						}
						JOINT RightShoulder_virtual
						{
							OFFSET 0.000000 0.000000 0.000000
							CHANNELS 3 Xrotation Yrotation Zrotation
							JOINT RightShoulder
							{
								OFFSET -2.196100 4.412496 0.070690
								CHANNELS 3 Xrotation Yrotation Zrotation
								JOINT RightShoulder_split
								{
									OFFSET -2.196100 4.412496 0.070690
									CHANNELS 3 Xrotation Yrotation Zrotation
									JOINT RightArm
									{
										OFFSET -8.771282 -2.981682 -0.094208
										CHANNELS 3 Xrotation Yrotation Zrotation
										JOINT RightForeArm
										{
											OFFSET -8.494598 0.000000 0.000000
											CHANNELS 3 Xrotation Yrotation Zrotation
											JOINT RightHand
											{
												OFFSET -18.483803 0.000000 0.000001
												CHANNELS 3 Xrotation Yrotation Zrotation
												End Site
												{
													OFFSET 0 0 0
												}
											}
										}
									}
								}
							}
						}
					}
				}
			}
		}
	}
}
MOTION
Frames: 4
Frame Time: 0.03333333
1.320812 24.163036 -20.112055 0.000000 0.000000 0.000000 25.468013 -77.153708 23.340148 -38.728054 -8.852566 33.862937 83.024098 5.013566 -0.722993 -33.834507 14.046878 -36.944702 -5.441429 -2.595901 4.093076 0.000000 0.000000 0.000000 28.301463 -76.715961 26.351029 -51.643784 3.758122 -19.561489 88.588681 19.114822 -6.265528 -42.775965 -5.069640 5.843325 0.459079 2.092219 0.828686 0.000000 0.000000 0.000000 38.163368 -81.611144 36.493182 4.732192 10.796976 -4.294917 10.350405 18.790805 -6.263266 0.854201 -5.587461 2.028070 0.000000 0.000000 0.000000 12.473930 18.202604 -7.748817 -0.401994 2.039884 3.389000 4.623740 2.411023 -6.256206 0.000000 0.000000 0.000000 10.183033 18.460425 -7.099390 4.403300 -4.841568 -0.504676 1.452886 3.417666 0.459126 -75.196455 -30.286087 -60.855223 55.358471 -75.928959 54.122361 0.000000 0.000000 0.000000 9.288033 18.617926 -6.483597 5.506936 8.904757 -2.362359 -2.460814 5.928492 -3.683426 -48.027001 -3.900104 29.083335 -15.630227 43.601500 1.926907 0.000000 0.000000 0.000000 
1.432606 24.022434 -20.207197 0.000000 0.000000 0.000000 35.632909 -73.798350 32.886630 -45.165305 -9.923108 34.297891 84.192279 4.335661 -1.179018 -33.873275 12.309900 -35.180658 -5.813011 -2.897217 3.909957 0.000000 0.000000 0.000000 35.463411 -74.074009 33.751414 -54.445343 3.583308 -20.673495 89.185543 18.850151 -3.996325 -46.238274 -5.027705 4.732237 2.954173 1.863770 0.303608 0.000000 0.000000 0.000000 44.995729 -77.673499 42.836276 5.289570 10.537695 -4.199596 10.997062 18.111749 -6.463573 1.066053 -6.249819 1.957888 0.000000 0.000000 0.000000 12.408177 17.668026 -7.528684 -0.516190 4.332820 3.950537 1.930353 4.953783 -9.980135 0.000000 0.000000 0.000000 10.506571 17.827509 -7.410526 3.583585 -5.115267 -2.799398 -0.187581 2.901881 0.114706 -60.874047 -21.226450 -55.762651 52.226700 -72.063250 49.612739 0.000000 0.000000 0.000000 9.672265 18.261199 -6.402411 4.861622 8.902070 0.476304 -1.975730 5.969573 -4.431386 -42.263045 -9.991029 29.833679 -15.138976 43.054186 5.332299 0.000000 0.000000 0.000000 
1.495659 24.071505 -20.239588 0.000000 0.000000 0.000000 42.401159 -70.851765 39.535706 -50.912165 -10.251287 34.103456 83.998377 3.486922 -1.308168 -32.708430 10.261851 -32.810825 -6.348112 -3.280196 3.666351 0.000000 0.000000 0.000000 39.834643 -71.527640 38.729252 -56.896213 4.398889 -22.369493 89.160442 19.113591 -2.579470 -47.150613 -5.020288 6.161217 3.079686 1.666604 -0.302090 0.000000 0.000000 0.000000 47.575112 -73.828908 45.139450 5.610975 10.222578 -3.769412 11.504010 17.397808 -6.448187 1.348761 -6.406869 1.641331 0.000000 0.000000 0.000000 12.183972 17.039655 -7.095479 -0.871850 6.404715 4.296150 0.144163 7.516990 -13.529151 0.000000 0.000000 0.000000 10.708379 17.143701 -7.459925 3.036299 -4.624637 -4.312496 -1.104198 2.337965 -0.213396 -47.085996 -11.722990 -52.847229 41.640829 -68.349833 38.782057 0.000000 0.000000 0.000000 9.972871 17.756125 -6.186508 4.385714 8.915612 3.007063 -1.270023 6.448021 -4.605672 -35.060830 -17.318621 32.335946 -14.630470 43.521757 7.856039 0.000000 0.000000 0.000000 
1.560294 24.175053 -20.358984 0.000000 0.000000 0.000000 45.214473 -68.323946 42.769620 -55.638123 -10.027128 33.219773 83.107174 2.397049 -1.047485 -30.224735 8.444367 -30.788399 -6.275151 -3.572166 3.348974 0.000000 0.000000 0.000000 42.120602 -69.309235 41.762328 -58.375626 6.104044 -24.069973 88.565260 19.655964 -2.268081 -46.851300 -5.120759 9.344045 1.788321 1.392633 -0.624086 0.000000 0.000000 0.000000 47.837484 -70.686495 45.446685 5.649368 9.860657 -3.115470 11.878553 16.677548 -6.298335 1.436655 -5.998522 1.468664 0.000000 0.000000 0.000000 11.852269 16.317059 -6.580466 -1.439785 8.112256 4.390846 -0.728202 9.654286 -16.569740 0.000000 0.000000 0.000000 10.851383 16.401832 -7.292440 2.698414 -3.803793 -5.022860 -1.023647 1.623379 -0.470987 -34.340764 -3.551815 -53.239593 29.439020 -64.662910 26.993171 0.000000 0.000000 0.000000 10.291160 17.144362 -5.904941 3.995639 9.255073 5.463559 -0.659528 6.843900 -4.397834 -25.975028 -24.384209 37.032268 -13.981585 43.622489 9.317032 0.000000 0.000000 0.000000 
